<?xml version="1.0" standalone="no"?>
<!DOCTYPE svg PUBLIC "-//W3C//DTD SVG 20010904//EN"
 "http://www.w3.org/TR/2001/REC-SVG-20010904/DTD/svg10.dtd">
<svg version="1.0" xmlns="http://www.w3.org/2000/svg"
 width="121.000000pt" height="121.000000pt" viewBox="0 0 121.000000 121.000000"
 preserveAspectRatio="xMidYMid meet">

<g transform="translate(0.000000,121.000000) scale(0.100000,-0.100000)"
fill="#000000" stroke="none">
<path d="M200 705 l0 -75 185 0 185 0 0 -54 0 -55 -42 -4 -43 -4 43 -1 c35 -2
42 -5 42 -22 0 -13 7 -20 20 -20 13 0 20 7 20 19 0 15 8 21 38 24 l37 4 -42 1
-43 2 0 55 0 55 35 0 c24 0 35 5 35 15 0 10 -11 15 -35 15 l-35 0 0 60 c0 47
-3 60 -15 60 -12 0 -15 -13 -15 -60 l0 -60 -170 0 -170 0 0 60 c0 47 -3 60
-15 60 -12 0 -15 -15 -15 -75z"/>
<path d="M950 721 c0 -50 -3 -59 -20 -64 -32 -8 -23 -27 13 -27 l32 0 -3 75
c-4 88 -22 102 -22 16z"/>
<path d="M710 645 c0 -8 7 -15 15 -15 8 0 15 7 15 15 0 8 -7 15 -15 15 -8 0
-15 -7 -15 -15z"/>
<path d="M780 645 c0 -8 5 -15 10 -15 6 0 10 7 10 15 0 8 -4 15 -10 15 -5 0
-10 -7 -10 -15z"/>
<path d="M850 645 c0 -8 5 -15 10 -15 6 0 10 7 10 15 0 8 -4 15 -10 15 -5 0
-10 -7 -10 -15z"/>
<path d="M698 503 c7 -3 16 -2 19 1 4 3 -2 6 -13 5 -11 0 -14 -3 -6 -6z"/>
<path d="M478 433 c7 -3 16 -2 19 1 4 3 -2 6 -13 5 -11 0 -14 -3 -6 -6z"/>
<path d="M678 433 c7 -3 16 -2 19 1 4 3 -2 6 -13 5 -11 0 -14 -3 -6 -6z"/>
</g>
</svg>
